<?xml version="1.0" encoding="UTF-8" standalone="no"?>
<!DOCTYPE svg PUBLIC "-//W3C//DTD SVG 1.1//EN"
 "http://www.w3.org/Graphics/SVG/1.1/DTD/svg11.dtd">
<!-- Generated by graphviz version 2.38.0 (20140413.2041)
 -->
<!-- Title: %3 Pages: 1 -->
<svg width="168pt" height="172pt"
 viewBox="0.00 0.00 167.81 172.18" xmlns="http://www.w3.org/2000/svg" xmlns:xlink="http://www.w3.org/1999/xlink">
<g id="graph0" class="graph" transform="scale(1 1) rotate(0) translate(101.553 90.85)">
<title>%3</title>
<polygon fill="white" stroke="none" points="-101.553,81.332 -101.553,-90.85 66.254,-90.85 66.254,81.332 -101.553,81.332"/>
<!-- TOM1 -->
<g id="node1" class="node"><title>TOM1</title>
<ellipse fill="#ffffff" stroke="black" cx="-76.053" cy="9.5273" rx="21.5" ry="21.5"/>
<text text-anchor="middle" x="-76.053" y="13.7273" font-family="Times,serif" font-size="14.00" fill="#000000">TOM1</text>
</g>
<!-- T0 -->
<g id="node2" class="node"><title>T0</title>
<polygon fill="#d1d1d1" stroke="black" points="11.1368,-11.0088 -10.8632,-11.0088 -10.8632,10.9912 11.1368,10.9912 11.1368,-11.0088"/>
<text text-anchor="middle" x="0.13676" y="4.19119" font-family="Times,serif" font-size="14.00" fill="#000000">T0</text>
</g>
<!-- TOM1&#45;&gt;T0 -->
<g id="edge1" class="edge"><title>TOM1&#45;&gt;T0</title>
<path fill="none" stroke="black" d="M-55.99,0.87788C-45.373,-1.3353 -32.33,-2.9693 -21.488,-3.4445"/>
<polygon fill="black" stroke="black" points="-21.1994,-6.94589 -11.182,-3.496 -21.1644,0.0540231 -21.1994,-6.94589"/>
</g>
<!-- T0&#45;&gt;TOM1 -->
<g id="edge2" class="edge"><title>T0&#45;&gt;TOM1</title>
<path fill="none" stroke="black" d="M-11.139,6.5045C-19.962,9.0372 -32.675,11.157 -44.516,12.268"/>
<polygon fill="black" stroke="black" points="-44.3596,15.7655 -54.579,12.97 -44.8468,8.78248 -44.3596,15.7655"/>
</g>
<!-- A_m -->
<g id="node3" class="node"><title>A_m</title>
<ellipse fill="#ffffff" stroke="black" cx="29.662" cy="-70.85" rx="16" ry="16"/>
<text text-anchor="middle" x="29.662" y="-66.65" font-family="Times,serif" font-size="14.00" fill="#000000">A_m</text>
</g>
<!-- T0&#45;&gt;A_m -->
<g id="edge3" class="edge"><title>T0&#45;&gt;A_m</title>
<path fill="none" stroke="black" d="M4.7501,-11.078C8.678,-20.502 14.464,-34.385 19.471,-46.399"/>
<polygon fill="black" stroke="black" points="16.3584,-48.0289 23.436,-55.913 22.8198,-45.3361 16.3584,-48.0289"/>
</g>
<!-- A_c -->
<g id="node4" class="node"><title>A_c</title>
<ellipse fill="#ffffff" stroke="black" cx="46.254" cy="61.332" rx="16" ry="16"/>
<text text-anchor="middle" x="46.254" y="65.532" font-family="Times,serif" font-size="14.00" fill="#000000">A_c</text>
</g>
<!-- A_c&#45;&gt;T0 -->
<g id="edge4" class="edge"><title>A_c&#45;&gt;T0</title>
<path fill="none" stroke="black" d="M36.474,48.323C30.158,39.922 21.826,28.84 14.734,19.407"/>
<polygon fill="black" stroke="black" points="11.8741,21.4274 8.6625,11.331 17.4693,17.2209 11.8741,21.4274"/>
</g>
</g>
</svg>
